<svg xmlns="http://www.w3.org/2000/svg" viewBox="0 0 64 64"><defs><linearGradient id="c" x1="0" y1="0" x2="1" y2="1"><stop offset="0" stop-color="#22D3EE"/><stop offset="1" stop-color="#0891B2"/></linearGradient><linearGradient id="d" x1="0" y1="0" x2="0" y2="1"><stop offset="0" stop-color="#1F2937"/><stop offset="1" stop-color="#0F172A"/></linearGradient></defs><rect width="64" height="64" rx="12" fill="url(#d)"/><path fill="url(#c)" d="M32 10 12 21v22l20 11 20-11V21L32 10zm0 4.6 14.4 7.9-7.2 4.2L32 22.6l-7.2 4.1-7.2-4.2L32 14.6zM16 26.5l7.2 4.2v8.4L16 34.9V26.5zm32 0v8.4l-7.2 3.8v-8.4L48 26.5zM25.6 32l6.4-3.5 6.4 3.5v7.5l-6.4 3.5-6.4-3.5V32z"/></svg>
